<mxfile host="app.diagrams.net" agent="Mozilla/5.0 (Windows NT 10.0; Win64; x64) AppleWebKit/537.36 (KHTML, like Gecko) Chrome/138.0.0.0 Safari/537.36" version="27.1.6">
  <diagram id="C5RBs43oDa-KdzZeNtuy" name="Page-1">
    <mxGraphModel dx="2220" dy="1090" grid="0" gridSize="10" guides="0" tooltips="1" connect="1" arrows="1" fold="1" page="1" pageScale="1" pageWidth="827" pageHeight="1169" math="0" shadow="0">
      <root>
        <mxCell id="WIyWlLk6GJQsqaUBKTNV-0" />
        <mxCell id="WIyWlLk6GJQsqaUBKTNV-1" parent="WIyWlLk6GJQsqaUBKTNV-0" />
        <mxCell id="-vjJtmbgc6F2R6WbQubW-61" value="推理服务实例" style="shape=umlLifeline;perimeter=lifelinePerimeter;whiteSpace=wrap;container=1;dropTarget=0;collapsible=0;recursiveResize=0;outlineConnect=0;portConstraint=eastwest;newEdgeStyle={&quot;edgeStyle&quot;:&quot;elbowEdgeStyle&quot;,&quot;elbow&quot;:&quot;vertical&quot;,&quot;curved&quot;:0,&quot;rounded&quot;:0};size=65;" vertex="1" parent="WIyWlLk6GJQsqaUBKTNV-1">
          <mxGeometry x="20" y="20" width="150" height="960" as="geometry" />
        </mxCell>
        <mxCell id="-vjJtmbgc6F2R6WbQubW-62" value="RegisterController" style="shape=umlLifeline;perimeter=lifelinePerimeter;whiteSpace=wrap;container=1;dropTarget=0;collapsible=0;recursiveResize=0;outlineConnect=0;portConstraint=eastwest;newEdgeStyle={&quot;edgeStyle&quot;:&quot;elbowEdgeStyle&quot;,&quot;elbow&quot;:&quot;vertical&quot;,&quot;curved&quot;:0,&quot;rounded&quot;:0};size=65;" vertex="1" parent="WIyWlLk6GJQsqaUBKTNV-1">
          <mxGeometry x="370" y="20" width="156" height="960" as="geometry" />
        </mxCell>
        <mxCell id="-vjJtmbgc6F2R6WbQubW-63" value="CreateInferServiceInstanceCommandExe" style="shape=umlLifeline;perimeter=lifelinePerimeter;whiteSpace=wrap;container=1;dropTarget=0;collapsible=0;recursiveResize=0;outlineConnect=0;portConstraint=eastwest;newEdgeStyle={&quot;edgeStyle&quot;:&quot;elbowEdgeStyle&quot;,&quot;elbow&quot;:&quot;vertical&quot;,&quot;curved&quot;:0,&quot;rounded&quot;:0};size=65;" vertex="1" parent="WIyWlLk6GJQsqaUBKTNV-1">
          <mxGeometry x="667" y="20" width="323" height="960" as="geometry" />
        </mxCell>
        <mxCell id="-vjJtmbgc6F2R6WbQubW-64" value="InferServiceCategory" style="shape=umlLifeline;perimeter=lifelinePerimeter;whiteSpace=wrap;container=1;dropTarget=0;collapsible=0;recursiveResize=0;outlineConnect=0;portConstraint=eastwest;newEdgeStyle={&quot;edgeStyle&quot;:&quot;elbowEdgeStyle&quot;,&quot;elbow&quot;:&quot;vertical&quot;,&quot;curved&quot;:0,&quot;rounded&quot;:0};size=65;" vertex="1" parent="WIyWlLk6GJQsqaUBKTNV-1">
          <mxGeometry x="1040" y="20" width="176" height="960" as="geometry" />
        </mxCell>
        <mxCell id="-vjJtmbgc6F2R6WbQubW-65" value="InferServiceInstance" style="shape=umlLifeline;perimeter=lifelinePerimeter;whiteSpace=wrap;container=1;dropTarget=0;collapsible=0;recursiveResize=0;outlineConnect=0;portConstraint=eastwest;newEdgeStyle={&quot;edgeStyle&quot;:&quot;elbowEdgeStyle&quot;,&quot;elbow&quot;:&quot;vertical&quot;,&quot;curved&quot;:0,&quot;rounded&quot;:0};size=65;" vertex="1" parent="WIyWlLk6GJQsqaUBKTNV-1">
          <mxGeometry x="1266" y="20" width="171" height="960" as="geometry" />
        </mxCell>
        <mxCell id="-vjJtmbgc6F2R6WbQubW-66" value="NacosAccount" style="shape=umlLifeline;perimeter=lifelinePerimeter;whiteSpace=wrap;container=1;dropTarget=0;collapsible=0;recursiveResize=0;outlineConnect=0;portConstraint=eastwest;newEdgeStyle={&quot;edgeStyle&quot;:&quot;elbowEdgeStyle&quot;,&quot;elbow&quot;:&quot;vertical&quot;,&quot;curved&quot;:0,&quot;rounded&quot;:0};size=65;" vertex="1" parent="WIyWlLk6GJQsqaUBKTNV-1">
          <mxGeometry x="1487" y="20" width="150" height="960" as="geometry" />
        </mxCell>
        <mxCell id="-vjJtmbgc6F2R6WbQubW-67" value="InferMonitorService" style="shape=umlLifeline;perimeter=lifelinePerimeter;whiteSpace=wrap;container=1;dropTarget=0;collapsible=0;recursiveResize=0;outlineConnect=0;portConstraint=eastwest;newEdgeStyle={&quot;edgeStyle&quot;:&quot;elbowEdgeStyle&quot;,&quot;elbow&quot;:&quot;vertical&quot;,&quot;curved&quot;:0,&quot;rounded&quot;:0};size=65;" vertex="1" parent="WIyWlLk6GJQsqaUBKTNV-1">
          <mxGeometry x="1687" y="20" width="167" height="960" as="geometry" />
        </mxCell>
        <mxCell id="-vjJtmbgc6F2R6WbQubW-68" value="Database" style="shape=umlLifeline;perimeter=lifelinePerimeter;whiteSpace=wrap;container=1;dropTarget=0;collapsible=0;recursiveResize=0;outlineConnect=0;portConstraint=eastwest;newEdgeStyle={&quot;edgeStyle&quot;:&quot;elbowEdgeStyle&quot;,&quot;elbow&quot;:&quot;vertical&quot;,&quot;curved&quot;:0,&quot;rounded&quot;:0};size=65;" vertex="1" parent="WIyWlLk6GJQsqaUBKTNV-1">
          <mxGeometry x="1904" y="20" width="150" height="960" as="geometry" />
        </mxCell>
        <mxCell id="-vjJtmbgc6F2R6WbQubW-69" value="POST /api/v1/register/registerInstance" style="verticalAlign=bottom;edgeStyle=elbowEdgeStyle;elbow=vertical;curved=0;rounded=0;endArrow=block;" edge="1" parent="WIyWlLk6GJQsqaUBKTNV-1" source="-vjJtmbgc6F2R6WbQubW-61" target="-vjJtmbgc6F2R6WbQubW-62">
          <mxGeometry relative="1" as="geometry">
            <Array as="points">
              <mxPoint x="280" y="131" />
            </Array>
          </mxGeometry>
        </mxCell>
        <mxCell id="-vjJtmbgc6F2R6WbQubW-70" value="发送CreateInferServiceInstanceCommand" style="verticalAlign=bottom;edgeStyle=elbowEdgeStyle;elbow=vertical;curved=0;rounded=0;endArrow=block;" edge="1" parent="WIyWlLk6GJQsqaUBKTNV-1" source="-vjJtmbgc6F2R6WbQubW-62" target="-vjJtmbgc6F2R6WbQubW-63">
          <mxGeometry relative="1" as="geometry">
            <Array as="points">
              <mxPoint x="647" y="187" />
            </Array>
          </mxGeometry>
        </mxCell>
        <mxCell id="-vjJtmbgc6F2R6WbQubW-73" value="查找或创建推理服务类别" style="verticalAlign=bottom;edgeStyle=elbowEdgeStyle;elbow=vertical;curved=0;rounded=0;endArrow=block;" edge="1" parent="WIyWlLk6GJQsqaUBKTNV-1" source="-vjJtmbgc6F2R6WbQubW-63" target="-vjJtmbgc6F2R6WbQubW-64">
          <mxGeometry relative="1" as="geometry">
            <Array as="points">
              <mxPoint x="986" y="409" />
            </Array>
          </mxGeometry>
        </mxCell>
        <mxCell id="-vjJtmbgc6F2R6WbQubW-74" value="创建推理服务实例" style="verticalAlign=bottom;edgeStyle=elbowEdgeStyle;elbow=vertical;curved=0;rounded=0;endArrow=block;" edge="1" parent="WIyWlLk6GJQsqaUBKTNV-1" source="-vjJtmbgc6F2R6WbQubW-64" target="-vjJtmbgc6F2R6WbQubW-65">
          <mxGeometry relative="1" as="geometry">
            <Array as="points">
              <mxPoint x="1248" y="463" />
            </Array>
          </mxGeometry>
        </mxCell>
        <mxCell id="-vjJtmbgc6F2R6WbQubW-75" value="创建Nacos账户" style="verticalAlign=bottom;edgeStyle=elbowEdgeStyle;elbow=vertical;curved=0;rounded=0;endArrow=block;" edge="1" parent="WIyWlLk6GJQsqaUBKTNV-1" source="-vjJtmbgc6F2R6WbQubW-65" target="-vjJtmbgc6F2R6WbQubW-66">
          <mxGeometry relative="1" as="geometry">
            <Array as="points">
              <mxPoint x="1465" y="519" />
            </Array>
          </mxGeometry>
        </mxCell>
        <mxCell id="-vjJtmbgc6F2R6WbQubW-77" value="添加到存活实例列表" style="verticalAlign=bottom;edgeStyle=elbowEdgeStyle;elbow=vertical;curved=0;rounded=0;endArrow=block;" edge="1" parent="WIyWlLk6GJQsqaUBKTNV-1" source="-vjJtmbgc6F2R6WbQubW-65" target="-vjJtmbgc6F2R6WbQubW-64">
          <mxGeometry relative="1" as="geometry">
            <Array as="points">
              <mxPoint x="1251" y="657" />
            </Array>
          </mxGeometry>
        </mxCell>
        <mxCell id="-vjJtmbgc6F2R6WbQubW-78" value="注册健康检查" style="verticalAlign=bottom;edgeStyle=elbowEdgeStyle;elbow=vertical;curved=0;rounded=0;endArrow=block;" edge="1" parent="WIyWlLk6GJQsqaUBKTNV-1" source="-vjJtmbgc6F2R6WbQubW-64" target="-vjJtmbgc6F2R6WbQubW-67">
          <mxGeometry relative="1" as="geometry">
            <Array as="points">
              <mxPoint x="1457" y="711" />
            </Array>
          </mxGeometry>
        </mxCell>
        <mxCell id="-vjJtmbgc6F2R6WbQubW-79" value="持久化实例信息" style="verticalAlign=bottom;edgeStyle=elbowEdgeStyle;elbow=vertical;curved=0;rounded=0;endArrow=block;" edge="1" parent="WIyWlLk6GJQsqaUBKTNV-1" source="-vjJtmbgc6F2R6WbQubW-67" target="-vjJtmbgc6F2R6WbQubW-68">
          <mxGeometry relative="1" as="geometry">
            <Array as="points">
              <mxPoint x="1883" y="765" />
            </Array>
          </mxGeometry>
        </mxCell>
        <mxCell id="-vjJtmbgc6F2R6WbQubW-80" value="返回instanceId" style="verticalAlign=bottom;edgeStyle=elbowEdgeStyle;elbow=vertical;curved=0;rounded=0;endArrow=block;" edge="1" parent="WIyWlLk6GJQsqaUBKTNV-1" source="-vjJtmbgc6F2R6WbQubW-63" target="-vjJtmbgc6F2R6WbQubW-62">
          <mxGeometry relative="1" as="geometry">
            <Array as="points">
              <mxPoint x="650" y="821" />
            </Array>
          </mxGeometry>
        </mxCell>
        <mxCell id="-vjJtmbgc6F2R6WbQubW-81" value="返回注册成功响应" style="verticalAlign=bottom;edgeStyle=elbowEdgeStyle;elbow=vertical;curved=0;rounded=0;endArrow=block;" edge="1" parent="WIyWlLk6GJQsqaUBKTNV-1" source="-vjJtmbgc6F2R6WbQubW-62" target="-vjJtmbgc6F2R6WbQubW-61">
          <mxGeometry relative="1" as="geometry">
            <Array as="points">
              <mxPoint x="283" y="875" />
            </Array>
          </mxGeometry>
        </mxCell>
      </root>
    </mxGraphModel>
  </diagram>
</mxfile>
